PathFileType	4	(X/Y/Z)	62_2_75_p0_0-985.trc
DataRate	CameraRate	NumFrames	NumMarkers	Units	OrigDataRate	OrigDataStartFrame	OrigNumFrames
60.0	60.0	6	27	m	60.0	493	986
Frame#	Time	RHip			RKnee			RAnkle			RBigToe			RSmallToe			RHeel			LHip			LKnee			LAnkle			LBigToe			LSmallToe			LHeel			Neck			Head			Nose			RShoulder			RElbow			RWrist			RThumb			RIndex			RPinky			LShoulder			LElbow			LWrist			LThumb			LIndex			LPinky			
		X1	Y1	Z1	X2	Y2	Z2	X3	Y3	Z3	X4	Y4	Z4	X5	Y5	Z5	X6	Y6	Z6	X7	Y7	Z7	X8	Y8	Z8	X9	Y9	Z9	X10	Y10	Z10	X11	Y11	Z11	X12	Y12	Z12	X13	Y13	Z13	X14	Y14	Z14	X15	Y15	Z15	X16	Y16	Z16	X17	Y17	Z17	X18	Y18	Z18	X19	Y19	Z19	X20	Y20	Z20	X21	Y21	Z21	X22	Y22	Z22	X23	Y23	Z23	X24	Y24	Z24	X25	Y25	Z25	X26	Y26	Z26	X27	Y27	Z27	
493	8.216666666666667	0.33813112513888666	0.44368233741752805	0.2676057994472795	0.3577402831148941	0.7728905347350787	0.571886364241361	0.36384430545005564	1.0270187747057038	0.852792180924825	0.3143055852941298	0.9374882121186383	0.9377189947841285	0.36587120409695806	0.9453531810931523	0.9303951359500009	0.33817922670639905	1.1037502136858013	0.8526694832280969	0.14421759200968048	0.5123833138702018	0.22542853759672604	0.14481323581153144	0.8177055988879017	0.5391890493399547	0.15712646427081575	1.0757805301916643	0.8256391868383605	0.1316804014780949	0.931885756693498	0.9199490333551251	0.08515073821521242	0.9963765425955816	0.8866998767717574	0.17810375582224117	1.1114830381995784	0.844217882339933	0.22707031609504755	0.13770176925126876	-0.21210307753235103	0.21753019658681724	-0.04324174017816653	-0.3876111615689451	0.18942050069211944	-0.014701841445106273	-0.2355609872295871	0.3893242943809205	0.15471396589056902	-0.13251800649402662	0.4520508326287041	0.2689814045993598	0.09567133029242728	0.2858996720221207	0.18968884437120173	0.20402862462535823	0.18836343289500115	0.1561399171965782	0.18917002062279167	0.16992881564202833	0.194176105438317	0.23037512987306322	0.18351264840514883	0.22931606340551694	0.24096781105019185	0.08245151242155731	0.23745449896251455	-0.17668675012530938	0.008957834250305222	0.3667335325038937	0.006988762836764794	0.07341583804226365	0.2157511598412356	0.14931118923151765	0.11933128998964848	0.16265806501599805	0.16964544601003043	0.1253446776122936	0.1714513632870689	0.20772223742275595	0.12721578712782097	0.21381808168999475	0.23819102367575326
494	8.233333333333333	0.3381210325971449	0.44361961740405115	0.2677585362504381	0.3577400178425901	0.7729425486789558	0.5720879770990455	0.3638691828253596	1.0270079682285542	0.8527858887786482	0.3142071856510652	0.9374581864320882	0.9378297700588168	0.3609262320402648	0.9438574736153242	0.9301384523016757	0.3384340840257844	1.1039440910970013	0.852768788374818	0.13992395129426485	0.512372204625336	0.22562563484023818	0.1448628270966825	0.817508742622902	0.5393492161079185	0.15714545720566742	1.0756223080826104	0.8255760371992247	0.13169460132059976	0.9316600447221455	0.9200879457595708	0.08513726472135089	0.9963955943226754	0.8867714798866349	0.17908526616455497	1.108350248561938	0.8404450153562757	0.227083437995261	0.13762405853732737	-0.21200758780761028	0.21753687083438408	-0.043222048391096765	-0.387625575154281	0.18939283212110491	-0.014759941063395373	-0.23555397099899902	0.38936302961023295	0.15474088978687434	-0.13246972722298547	0.4563009321282359	0.26933767417491317	0.09551466913951355	0.29014336226405274	0.18986527964288563	0.2037422582811041	0.19166017346012118	0.15723771346525295	0.19260634506472246	0.1704537412162362	0.18202653018374276	0.23267232500027968	0.18669285503634236	0.2159406894068202	0.23958083226121202	0.07704359445775255	0.22759903321725822	-0.17099490910902165	0.008892123393621432	0.36853559934529184	0.010513113696627822	0.07520969785468619	0.20357849499710773	0.15460584734222363	0.12123515911376899	0.1522700388895577	0.17421423770699954	0.12594892911961852	0.1694081294906918	0.20531984888698657	0.12772853007565743	0.21350621842550382	0.237964453638526
495	8.25	0.34530783533309917	0.4574581640643082	0.2667691444295156	0.35841172067090304	0.7700942599339123	0.5685054527423097	0.3639514779426333	1.027384603997391	0.8526263630442918	0.3141951160234729	0.9375667003722569	0.9379078623843694	0.3658375520335389	0.9456540419068065	0.9304850426906487	0.33868022327061614	1.1050142311244766	0.8525794057187047	0.14421484623246886	0.5126178179135126	0.22558181235806946	0.14484422282278125	0.817614213561402	0.5393669265681293	0.15711261709667862	1.0756989009300224	0.8255386606738361	0.130619849285307	0.9493063746664782	0.9177009835714539	0.086098150950203	0.9936252133912654	0.883558666710761	0.18512501010511484	1.12254328641281	0.8390122156874288	0.22709881565381734	0.13765123523893405	-0.21204158174173646	0.21755914920227187	-0.04321548229412392	-0.38761075178636034	0.18940818041937	-0.014709894198997658	-0.23559976223189452	0.38943946660146284	0.1548956794698462	-0.1324917828895312	0.45666962681022527	0.2672298218328377	0.0923426194842508	0.2861500035216742	0.18960612972693605	0.2038032553369555	0.188584967569168	0.1562182840095215	0.18984491174691107	0.17732937814014318	0.18318048635408174	0.23586614074683832	0.1887363652065449	0.2137700318616326	0.23989748897406715	0.0823888109015113	0.23732533326325747	-0.17652806642521696	0.008941012328436483	0.3687517490348386	0.010298826757975213	0.08013077728928222	0.21220454120482754	0.150596020404079	0.12124760954701364	0.15161970494860566	0.17402639189451016	0.12327614950560455	0.15440520906977187	0.19982866396859653	0.13447217318330118	0.20877580910324015	0.232604330369125
496	8.266666666666667	0.34539488240021116	0.45759486186983794	0.2670552404937764	0.3584015808055988	0.7701286092236559	0.5684576884080457	0.35673784306558187	1.0127795570253304	0.854241942466819	0.31406277262318505	0.9371324307632586	0.9381000687082665	0.36548338975425537	0.9447069013635934	0.9308706107787026	0.3386591400353801	1.104793082420011	0.8527072373151844	0.14433391597893788	0.5143072243796452	0.22899328825827575	0.1448333734211025	0.8175114102991551	0.5391218786927934	0.157042511912986	1.0757131008245495	0.8255064480936102	0.13759473985801957	0.9670977342698013	0.9198782636941355	0.08522677744344935	0.99661644133374	0.8867304673277919	0.1781118451550437	1.111418886129455	0.844310894506273	0.227124707133166	0.13766273183845323	-0.2120800831189223	0.2175650882727697	-0.043170418014848125	-0.38762745924850356	0.18943030335059802	-0.014638714332025867	-0.23563914827266808	0.3894509526439285	0.15495689238461777	-0.13249512621438195	0.4524012385218286	0.26703416352213427	0.0924949509848514	0.2909736868879163	0.17703759430050348	0.2091015154653569	0.19508466071275168	0.15390405732863888	0.18731707710135875	0.1778741188637506	0.18048207683980919	0.23684226386607118	0.19401239716742344	0.20079445297711335	0.24526340320563877	0.08241922476538394	0.23721913369733966	-0.17645814366040966	0.010697947888631518	0.35561165526002547	0.016723307644152283	0.08032233311927203	0.21206910294591869	0.15066692689084638	0.1283561758920338	0.15002053445430538	0.17467657012743848	0.1264824556948221	0.1504949089928675	0.19707904080045036	0.13433934506788128	0.21016597898827694	0.23514910720903012
497	8.283333333333333	0.33828081919986797	0.44569554961445673	0.2717354153424672	0.35838842109389507	0.7702647734292484	0.5688438664588839	0.3638256398590904	1.026853729309182	0.8528880446200411	0.31408698999746165	0.937411118992265	0.9381113352622458	0.36088561052523804	0.9253621923096056	0.9327561487390874	0.3388072594440134	1.0840907821813057	0.8557875399944396	0.14005216760557923	0.514437641117383	0.2291227067584879	0.1448419193367787	0.8176403420571488	0.5393873444820575	0.15705411013240744	1.0756117263530323	0.8255921605927473	0.1318691292857617	0.9531780747210403	0.9211251107426537	0.08607722599966912	0.9935306174405057	0.8836912595505934	0.17902916368873037	1.1083364610484208	0.8407911419438155	0.2368964940807037	0.1468281310163277	-0.2177826674963795	0.2175542740379082	-0.043179772334190625	-0.3877024809229706	0.18943622692116951	-0.014566222241537087	-0.23565737743168236	0.389452983172033	0.15496712599878001	-0.13248248258389214	0.45240154344658584	0.26709581053543663	0.09245378814182367	0.2956051391763901	0.16495930073332637	0.21424360546325064	0.1958661261324335	0.14213995689507347	0.19263285207540687	0.17644713314146854	0.16722990381535405	0.23856252307816764	0.19723563278364067	0.19140929831081535	0.24896608000567236	0.08252827306203064	0.2373390074634216	-0.17658699249228305	0.010879774462951795	0.3559265517547782	0.01656403798249384	0.0816263496080966	0.1976619250028357	0.15341366363440218	0.1284922810586385	0.14970427025056493	0.17499690275500263	0.1282229326023936	0.14101039938932836	0.20462186442533697	0.1385872681353335	0.21040178859995728	0.2353000801193374
498	8.3	0.3381933095248269	0.4457123958896005	0.27170854655994	0.3583910538627452	0.7701740228922639	0.5687189056089761	0.3638498543320823	1.0268793545799424	0.8529068090208498	0.31441312521831377	0.9378421961227336	0.9374767050460745	0.3610999342705197	0.9441720881587002	0.9298303666668665	0.3372076329885663	1.0999103126812944	0.850139915132019	0.14006815418763544	0.514436201144576	0.22919903335172767	0.13963961746356904	0.8194496117740188	0.5423481679446474	0.1570750075904799	1.0756627059715396	0.8256699281396354	0.1317652913549069	0.9531707028786027	0.9210364414256306	0.08515052772631139	0.9965037691992478	0.8867348509252474	0.17902436232958496	1.10818458058914	0.8407790100187424	0.23125217116311056	0.1378340304277491	-0.2122365642775533	0.21755190791309142	-0.04319363027751137	-0.3877692517665099	0.18941522347195297	-0.014722321235739933	-0.2356817329303878	0.38948065682030636	0.15489436282619534	-0.1323785220389099	0.45240678360425535	0.2669887175194127	0.0924351693192792	0.2950343939465591	0.16190105487848094	0.21168628863180788	0.20018299197976863	0.1444279505080981	0.1954118151199869	0.19229128416664726	0.16670691076075048	0.2393042922848037	0.20168309664464223	0.19172879153650463	0.24905361334046996	0.0770966884186748	0.22764455617515927	-0.17105283655002124	0.010783460206230154	0.35562627424239046	0.016725280713317536	0.08151779032766487	0.1979378793712005	0.15312364127078615	0.12851927347591782	0.14983371951550312	0.1749128427554967	0.12867851267863514	0.1385215631272478	0.19929440512721638	0.14442941135049397	0.21824781317159972	0.22838379361504196
